<svg xmlns="http://www.w3.org/2000/svg" xmlns:xlink="http://www.w3.org/1999/xlink" width="1382" zoomAndPan="magnify" viewBox="0 0 1036.5 878.999996" height="1172" preserveAspectRatio="xMidYMid meet" version="1.0"><defs><filter x="0%" y="0%" width="100%" height="100%" id="fefa615898"><feColorMatrix values="0 0 0 0 1 0 0 0 0 1 0 0 0 0 1 0 0 0 1 0" color-interpolation-filters="sRGB"/></filter><clipPath id="e8781fc9db"><path d="M 0 0.210938 L 1036 0.210938 L 1036 878.789062 L 0 878.789062 Z M 0 0.210938 " clip-rule="nonzero"/></clipPath><mask id="03a491d04d"><g filter="url(#fefa615898)"><rect x="-103.65" width="1243.8" fill="#000000" y="-87.9" height="1054.799995" fill-opacity="0.23"/></g></mask><clipPath id="5112e22453"><path d="M 2 2 L 1017.902344 2 L 1017.902344 869 L 2 869 Z M 2 2 " clip-rule="nonzero"/></clipPath><clipPath id="86ff3a8c4b"><rect x="0" width="1018" y="0" height="870"/></clipPath><mask id="282193d782"><g filter="url(#fefa615898)"><rect x="-103.65" width="1243.8" fill="#000000" y="-87.9" height="1054.799995" fill-opacity="0.23"/></g></mask><clipPath id="a6c0c4bc47"><path d="M 2 2 L 1017.902344 2 L 1017.902344 869 L 2 869 Z M 2 2 " clip-rule="nonzero"/></clipPath><clipPath id="ce7bba3d47"><rect x="0" width="1018" y="0" height="870"/></clipPath></defs><g clip-path="url(#e8781fc9db)"><path fill="#ffffff" d="M 0 0.210938 L 1036 0.210938 L 1036 878.789062 L 0 878.789062 Z M 0 0.210938 " fill-opacity="1" fill-rule="nonzero"/></g><g mask="url(#03a491d04d)"><g transform="matrix(1, 0, 0, 1, 10, 5)"><g clip-path="url(#86ff3a8c4b)"><g clip-path="url(#5112e22453)"><path fill="#ffffff" d="M 19.96875 173.0625 C -8.933594 223.480469 3.402344 287.820312 19.492188 344.136719 C 35.578125 400.464844 54.613281 460.84375 36.609375 516.53125 C 31.167969 533.367188 22.386719 549.386719 21.121094 567.105469 C 18.691406 600.941406 45.238281 630.984375 75.582031 643.054688 C 105.917969 655.125 139.414062 653.507812 171.867188 652.84375 C 204.320312 652.175781 238.296875 653.015625 266.847656 669.15625 C 324.792969 701.910156 339.277344 783.507812 388.664062 829.085938 C 426.171875 863.707031 480.179688 873.230469 529.78125 866.308594 C 579.390625 859.390625 625.898438 837.914062 671.628906 816.683594 C 739.371094 785.226562 807.625 753.472656 867.980469 708.511719 C 924.101562 666.707031 973.59375 612.3125 999.558594 545.589844 C 1025.535156 478.863281 1025.273438 398.800781 988.582031 337.832031 C 958.476562 287.820312 904.394531 247.625 902.777344 188.5625 C 901.824219 153.855469 920.289062 119.839844 914.234375 85.695312 C 900.40625 7.714844 794.039062 -4.007812 734.644531 4.597656 C 663.574219 14.894531 604.207031 56.738281 554.597656 108.765625 C 522.5 142.417969 492.148438 184.53125 444.007812 191.3125 C 372.269531 201.417969 299.136719 146.71875 233.585938 124.460938 C 162.953125 100.46875 63.890625 96.433594 19.96875 173.0625 " fill-opacity="1" fill-rule="nonzero"/></g></g></g></g><g mask="url(#282193d782)"><g transform="matrix(1, 0, 0, 1, 10, 5)"><g clip-path="url(#ce7bba3d47)"><g clip-path="url(#a6c0c4bc47)"><path fill="#ffffff" d="M 19.96875 173.0625 C -8.933594 223.480469 3.402344 287.820312 19.492188 344.136719 C 35.578125 400.464844 54.613281 460.84375 36.609375 516.53125 C 31.167969 533.367188 22.386719 549.386719 21.121094 567.105469 C 18.691406 600.941406 45.238281 630.984375 75.582031 643.054688 C 105.917969 655.125 139.414062 653.507812 171.867188 652.84375 C 204.320312 652.175781 238.296875 653.015625 266.847656 669.15625 C 324.792969 701.910156 339.277344 783.507812 388.664062 829.085938 C 426.171875 863.707031 480.179688 873.230469 529.78125 866.308594 C 579.390625 859.390625 625.898438 837.914062 671.628906 816.683594 C 739.371094 785.226562 807.625 753.472656 867.980469 708.511719 C 924.101562 666.707031 973.59375 612.3125 999.558594 545.589844 C 1025.535156 478.863281 1025.273438 398.800781 988.582031 337.832031 C 958.476562 287.820312 904.394531 247.625 902.777344 188.5625 C 901.824219 153.855469 920.289062 119.839844 914.234375 85.695312 C 900.40625 7.714844 794.039062 -4.007812 734.644531 4.597656 C 663.574219 14.894531 604.207031 56.738281 554.597656 108.765625 C 522.5 142.417969 492.148438 184.53125 444.007812 191.3125 C 372.269531 201.417969 299.136719 146.71875 233.585938 124.460938 C 162.953125 100.46875 63.890625 96.433594 19.96875 173.0625 " fill-opacity="1" fill-rule="nonzero"/></g></g></g></g></svg>